<svg xmlns="http://www.w3.org/2000/svg" version="1.1" xmlns:xlink="http://www.w3.org/1999/xlink" width="192" height="192"><svg id="SvgjsSvg1144" data-name="Layer 1" xmlns="http://www.w3.org/2000/svg" viewBox="0 0 192 192">
  <defs>
    <style>
      .cls-1 {
        fill: none;
      }

      .cls-1, .cls-2 {
        stroke: #fff;
        stroke-miterlimit: 10;
      }

      .cls-3 {
        fill: #303030;
      }

      .cls-4 {
        font-family: IowanOldStyle-Roman, 'Iowan Old Style';
        font-size: 17.69px;
      }

      .cls-2 {
        fill: #fff;
      }
    </style>
  </defs>
  <circle cx="96" cy="96" r="96"></circle>
  <circle class="cls-1" cx="96" cy="96" r="69.51"></circle>
  <circle class="cls-1" cx="96" cy="96" r="66.44"></circle>
  <polyline class="cls-2" points="29.56 124.85 29.56 147.39 41.63 152.74 41.63 148.2 150.26 148.04 150.26 152.74 162.44 147.39 162.44 124.85"></polyline>
  <text class="cls-4" transform="translate(34.55 141.84) scale(1.15 1)"><tspan x="0" y="0">SW_BLENDS</tspan></text>
  <path class="cls-3" d="M52.09,101.82c-2.43.34-2.62,2.6-2.78,3.3-.71,3.07,2.37,7.25,5.89,7.96.55.11.89.09,2.33,0,4.84-.32,7.26-.47,8.16-.58,18.03-2.19,30.32-5.57,30.32-5.57,16.94-4.66,30.01-10.99,30.59-11.39.04-.03.31-.23.71-.32,0,0,.46-.11.97,0,1.36.29,3.99,3.07,6.99,3.95.58.17,1.02.23,1.81.32,2.05.25,3.34.41,4.27-.32.78-.62,1.3-1.85.91-2.46-.43-.67-1.64-.16-3.82-.26-2.9-.13-5.98-1.27-6.02-2.33,0-.27.18-.36.84-1.1.76-.85,1.65-1.84,2.01-2.72.61-1.48-.01-3.26-.78-4.34-.27-.38-1.53-2.17-3.3-2.01-.68.06-1.49.42-2.01,1.04-.43.51-.35.83-.78,1.29,0,0-1.74,2.48-2.95,1.92-10.93-5.06-50.65-32.08-50.65-32.08-.35-.28-1.49-1.16-3.17-1.55-.72-.17-1.76-.39-2.91,0-1.79.61-2.6,2.27-2.85,2.78-.15.32-1.16,2.44-.32,4.6.42,1.08,1.11,1.77,1.42,2.01,7.36,5.42,28.3,17.91,29.02,18.32.13.07.52.29,1.08.45,1.83.53,4.81-.01,5.35-.55,1.67-1.63,1.08-1.57,2.29-1.53.75.03.98.38,2.85,1.42.05.03,0,0,2.72,1.36,5.45,2.72,7.24,4.57,8.16,5.24.73.53,1.13,1.06.89,1.38,0,0-2.28,1-3.99,1.4-3.34.79-8.67,2.64-63.24,10.36Z"></path>
  <ellipse cx="126.26" cy="91.98" rx="2.09" ry="1.22"></ellipse>
</svg><style>@media (prefers-color-scheme: light) { :root { filter: none; } }
@media (prefers-color-scheme: dark) { :root { filter: none; } }
</style></svg>